<?xml version="1.0" encoding="UTF-8"?>
<svg width="14px" height="15px" viewBox="0 0 14 15" version="1.1" xmlns="http://www.w3.org/2000/svg" xmlns:xlink="http://www.w3.org/1999/xlink">
    <!-- Generator: Sketch 52.6 (67491) - http://www.bohemiancoding.com/sketch -->
    <title>Group 3</title>
    <desc>Created with Sketch.</desc>
    <defs>
        <polygon id="path-1" points="0 0.0005 13.1653731 0.0005 13.1653731 14.9013 0 14.9013"></polygon>
    </defs>
    <g id="Page-1" stroke="none" stroke-width="1" fill="none" fill-rule="evenodd">
        <g id="Desktop-HD" transform="translate(-1164.000000, -214.000000)">
            <g id="Group-10" transform="translate(249.000000, 163.000000)">
                <g id="Group" transform="translate(647.000000, 0.000000)">
                    <g id="Group-3" transform="translate(268.608955, 51.000000)">
                        <mask id="mask-2" fill="white">
                            <use xlink:href="#path-1"></use>
                        </mask>
                        <g id="Clip-2"></g>
                        <path d="M12.5306078,4.2715 C12.5270734,7.6035 12.5226555,12.1425 12.5217719,12.5915 C12.468757,12.9855 12.3247331,13.3125 12.1020704,13.5655 C11.5286257,14.2125 10.5284107,14.2125 9.95761672,13.5655 C9.62892418,13.1935 9.47429731,12.6725 9.53261373,12.1375 L9.53526448,7.4545 C9.53526448,7.3085 9.45839284,7.1785 9.34087642,7.1235 C9.22070925,7.0665 9.08640478,7.0985 8.9962794,7.2015 C8.9962794,7.2015 3.3378197,13.6175 3.2883391,13.6715 C2.99587343,14.0035 2.60533015,14.1865 2.19004657,14.1865 C1.7791809,14.1865 1.40277493,14.0115 1.10058985,13.6815 C0.480315224,12.9675 0.484733134,11.8575 1.08556896,11.1775 C1.13504955,11.1225 6.80322866,4.7185 6.80322866,4.7185 C6.89335403,4.6165 6.92074507,4.4625 6.87126448,4.3295 C6.82178388,4.1945 6.70780179,4.1085 6.57968239,4.1085 L2.48074507,4.1085 C1.96473313,4.1775 1.50703761,4.0025 1.17834507,3.6305 C0.892064478,3.3065 0.733903284,2.8755 0.733903284,2.4175 C0.733903284,1.9585 0.892064478,1.5295 1.17834507,1.2045 C1.40454209,0.9495 1.69170627,0.7855 2.01156299,0.7315 C2.43656597,0.7275 6.76346746,0.7215 9.73318687,0.7175 L12.5341421,0.7135 L12.5306078,4.2715 Z M1.95854806,0.0175 C1.48671522,0.0905 1.06171224,0.3265 0.732136119,0.6995 C0.32657194,1.1575 0.104792836,1.7675 0.104792836,2.4175 C0.104792836,3.0675 0.32657194,3.6775 0.732136119,4.1355 C1.19336597,4.6575 1.83396299,4.9085 2.49046448,4.8255 L2.5090197,4.8235 L5.81538388,4.8235 L5.51673313,5.1605 C3.93865552,6.9435 0.680004776,10.6255 0.63936,10.6705 C-0.213296716,11.6355 -0.213296716,13.2065 0.63936,14.1705 C1.05817791,14.6445 1.60688239,14.9015 2.19004657,14.9015 C2.77409433,14.9015 3.32279881,14.6445 3.73543164,14.1775 C3.77165851,14.1355 7.02854209,10.4435 8.6066197,8.6555 L8.90438687,8.3175 L8.90438687,12.0595 C8.82928239,12.8255 9.05106149,13.5505 9.51052418,14.0715 C9.91520478,14.5295 10.4541899,14.7825 11.0294018,14.7825 C11.6037301,14.7825 12.1435988,14.5295 12.5482794,14.0715 C12.8778555,13.6985 13.0854973,13.2175 13.1499988,12.6805 C13.1544167,12.6125 13.1553003,11.7145 13.1659033,0.7195 C13.1659033,0.5295 13.1005182,0.3505 12.980351,0.2155 C12.8548824,0.0735 12.6967212,0.0005 12.527957,0.0005 C2.80943761,0.0115 2.0159809,0.0125 1.95854806,0.0175 Z" id="Fill-1" fill="#7ED321" mask="url(#mask-2)"></path>
                    </g>
                </g>
            </g>
        </g>
    </g>
</svg>