<svg id="Layer_1" data-name="Layer 1" xmlns="http://www.w3.org/2000/svg" viewBox="0 0 1194.56 203.76"><defs><style>.cls-1{fill:#fff;}</style></defs><path class="cls-1" d="M681.83,456.77a101.16,101.16,0,1,1,71.54-29.63A100.5,100.5,0,0,1,681.83,456.77Zm0-196.23a95.05,95.05,0,1,0,67.22,27.84A94.45,94.45,0,0,0,681.83,260.54Z" transform="translate(-401.39 -253.02)"/><path class="cls-1" d="M685.17,418.82a3,3,0,0,1-2.62-1.48,235.8,235.8,0,0,1-16.72-34.17,3.05,3.05,0,1,1,5.67-2.26,230.59,230.59,0,0,0,16.28,33.27,3.06,3.06,0,0,1-1,4.2A3.11,3.11,0,0,1,685.17,418.82Z" transform="translate(-401.39 -253.02)"/><path class="cls-1" d="M714,450.45a3.07,3.07,0,0,1-1.32-.3c-7.32-3.5-15.4-11.25-23.37-22.43a3.06,3.06,0,0,1,5-3.55c7.37,10.34,14.64,17.41,21,20.47a3.06,3.06,0,0,1-1.32,5.81Z" transform="translate(-401.39 -253.02)"/><path class="cls-1" d="M616,365.44a3,3,0,0,1-2.63-1.5c-11.56-19.57-19.26-37.89-21.68-51.58a3.06,3.06,0,0,1,6-1.07c2.29,13,9.72,30.59,20.92,49.54a3.06,3.06,0,0,1-1.08,4.19A3,3,0,0,1,616,365.44Z" transform="translate(-401.39 -253.02)"/><path class="cls-1" d="M711.67,354.43A13.44,13.44,0,1,1,725.11,341,13.44,13.44,0,0,1,711.67,354.43Zm0-20.76A7.33,7.33,0,1,0,719,341,7.33,7.33,0,0,0,711.67,333.67Z" transform="translate(-401.39 -253.02)"/><path class="cls-1" d="M682.54,309.63a8.36,8.36,0,1,1,8.35-8.35A8.36,8.36,0,0,1,682.54,309.63Zm0-10.6a2.25,2.25,0,1,0,2.24,2.25A2.25,2.25,0,0,0,682.54,299Z" transform="translate(-401.39 -253.02)"/><path class="cls-1" d="M666.24,384.59a8.35,8.35,0,1,1,8.36-8.35A8.36,8.36,0,0,1,666.24,384.59Zm0-10.59a2.24,2.24,0,1,0,2.25,2.24A2.24,2.24,0,0,0,666.24,374Z" transform="translate(-401.39 -253.02)"/><path class="cls-1" d="M751,391.11a8.35,8.35,0,1,1,8.35-8.35A8.36,8.36,0,0,1,751,391.11Zm0-10.59a2.24,2.24,0,1,0,2.24,2.24A2.24,2.24,0,0,0,751,380.52Z" transform="translate(-401.39 -253.02)"/><path class="cls-1" d="M619,376a8.36,8.36,0,1,1,8.36-8.36A8.37,8.37,0,0,1,619,376Zm0-10.6a2.25,2.25,0,1,0,2.25,2.24A2.25,2.25,0,0,0,619,365.44Z" transform="translate(-401.39 -253.02)"/><path class="cls-1" d="M628.35,407a8.35,8.35,0,1,1,8.36-8.35A8.36,8.36,0,0,1,628.35,407Zm0-10.59a2.24,2.24,0,1,0,2.25,2.24A2.24,2.24,0,0,0,628.35,396.41Z" transform="translate(-401.39 -253.02)"/><path class="cls-1" d="M655.65,431.85A8.35,8.35,0,1,1,664,423.5,8.36,8.36,0,0,1,655.65,431.85Zm0-10.59a2.24,2.24,0,1,0,2.24,2.24A2.25,2.25,0,0,0,655.65,421.26Z" transform="translate(-401.39 -253.02)"/><path class="cls-1" d="M687.84,429.41a8.36,8.36,0,1,1,8.35-8.35A8.36,8.36,0,0,1,687.84,429.41Zm0-10.59a2.24,2.24,0,1,0,2.24,2.24A2.24,2.24,0,0,0,687.84,418.82Z" transform="translate(-401.39 -253.02)"/><path class="cls-1" d="M727.36,300.66a8.35,8.35,0,1,1,8.35-8.35A8.35,8.35,0,0,1,727.36,300.66Zm0-10.59a2.24,2.24,0,1,0,2.24,2.24A2.24,2.24,0,0,0,727.36,290.07Z" transform="translate(-401.39 -253.02)"/><path class="cls-1" d="M650.36,297a8.36,8.36,0,1,1,8.35-8.35A8.37,8.37,0,0,1,650.36,297Zm0-10.6a2.25,2.25,0,1,0,2.24,2.25A2.25,2.25,0,0,0,650.36,286.4Z" transform="translate(-401.39 -253.02)"/><path class="cls-1" d="M666.24,273a8.35,8.35,0,1,1,8.36-8.35A8.36,8.36,0,0,1,666.24,273Zm0-10.59a2.24,2.24,0,1,0,2.25,2.24A2.24,2.24,0,0,0,666.24,262.37Z" transform="translate(-401.39 -253.02)"/><path class="cls-1" d="M706.22,335.22a3.05,3.05,0,0,1-2.46-1.23L683.7,307a3.06,3.06,0,0,1,4.91-3.64l20.06,27a3,3,0,0,1-2.45,4.87Z" transform="translate(-401.39 -253.02)"/><path class="cls-1" d="M715.13,334.14a3.08,3.08,0,0,1-.94-.15,3,3,0,0,1-2-3.85l10.59-32.66a3.05,3.05,0,1,1,5.81,1.89L718,332A3.06,3.06,0,0,1,715.13,334.14Z" transform="translate(-401.39 -253.02)"/><path class="cls-1" d="M676.84,302.29a3,3,0,0,1-1.1-.2l-21.18-8.15a3.05,3.05,0,1,1,2.19-5.7l21.18,8.15a3,3,0,0,1-1.09,5.9Z" transform="translate(-401.39 -253.02)"/><path class="cls-1" d="M680.68,299.37a3.07,3.07,0,0,1-2.79-1.79l-12-26.41a3.05,3.05,0,1,1,5.56-2.53l12,26.41a3.06,3.06,0,0,1-1.52,4.05A3,3,0,0,1,680.68,299.37Z" transform="translate(-401.39 -253.02)"/><path class="cls-1" d="M686.15,299.92a3,3,0,0,1-2.78-4.31l16.35-36.33a3.05,3.05,0,1,1,5.57,2.51l-16.35,36.33A3.06,3.06,0,0,1,686.15,299.92Z" transform="translate(-401.39 -253.02)"/><path class="cls-1" d="M725.32,290.07a3.05,3.05,0,0,1-2.89-2.06l-7.74-22.4a3.06,3.06,0,1,1,5.78-2L728.21,286a3.06,3.06,0,0,1-1.89,3.88A2.92,2.92,0,0,1,725.32,290.07Z" transform="translate(-401.39 -253.02)"/><path class="cls-1" d="M731.84,291.7a3.06,3.06,0,0,1-1.94-5.42l11.41-9.37a3.06,3.06,0,0,1,3.88,4.73L733.78,291A3.09,3.09,0,0,1,731.84,291.7Z" transform="translate(-401.39 -253.02)"/><path class="cls-1" d="M760,299.85h-.28l-26.89-2.45a3.05,3.05,0,1,1,.56-6.08l26.89,2.44a3.06,3.06,0,0,1-.28,6.1Z" transform="translate(-401.39 -253.02)"/><path class="cls-1" d="M747.9,381.52a3.06,3.06,0,0,1-2.41-1.17c-10.13-12.89-28-28.83-28.23-29a3.05,3.05,0,1,1,4-4.57c.75.66,18.51,16.47,29,29.79a3,3,0,0,1-2.4,4.94Z" transform="translate(-401.39 -253.02)"/><path class="cls-1" d="M776,386.4h-.09l-19.69-.58a3.06,3.06,0,0,1,.18-6.11l19.69.59a3.06,3.06,0,0,1-.09,6.11Z" transform="translate(-401.39 -253.02)"/><path class="cls-1" d="M758.61,419.74a3,3,0,0,1-3-2.42l-6-28.22a3.06,3.06,0,1,1,6-1.27l6,28.22a3.06,3.06,0,0,1-2.36,3.62A2.79,2.79,0,0,1,758.61,419.74Z" transform="translate(-401.39 -253.02)"/><path class="cls-1" d="M671.54,376a3.06,3.06,0,0,1-1.93-5.43l31.14-25.29a3.05,3.05,0,1,1,3.85,4.74l-31.13,25.29A3.07,3.07,0,0,1,671.54,376Z" transform="translate(-401.39 -253.02)"/><path class="cls-1" d="M633.65,399.11a3.06,3.06,0,0,1-1.54-5.7L660.19,377a3.05,3.05,0,1,1,3.09,5.27L635.2,398.69A3.11,3.11,0,0,1,633.65,399.11Z" transform="translate(-401.39 -253.02)"/><path class="cls-1" d="M656.88,421.26a3.34,3.34,0,0,1-.7-.08,3.06,3.06,0,0,1-2.28-3.67l8.55-36.67a3.06,3.06,0,0,1,6,1.39l-8.56,36.67A3.06,3.06,0,0,1,656.88,421.26Z" transform="translate(-401.39 -253.02)"/><path class="cls-1" d="M678.35,456.71a3.07,3.07,0,0,1-3-3.65c3.56-18,7.46-27.84,7.62-28.25a3.06,3.06,0,0,1,5.68,2.27c0,.13-3.87,9.83-7.3,27.17A3.05,3.05,0,0,1,678.35,456.71Z" transform="translate(-401.39 -253.02)"/><path class="cls-1" d="M668.06,455.82a3.06,3.06,0,0,1-2.69-1.61c-5.16-9.54-10.34-24.19-10.56-24.8a3.06,3.06,0,1,1,5.76-2c0,.15,5.25,14.82,10.18,23.94a3.06,3.06,0,0,1-2.69,4.51Z" transform="translate(-401.39 -253.02)"/><path class="cls-1" d="M630,442a3.06,3.06,0,0,1-1.61-5.66l21-13a3.05,3.05,0,0,1,3.21,5.19l-21,13A3,3,0,0,1,630,442Z" transform="translate(-401.39 -253.02)"/><path class="cls-1" d="M623.06,436.87a3.44,3.44,0,0,1-.54,0,3.07,3.07,0,0,1-2.47-3.55l5.3-29.87a3.05,3.05,0,0,1,6,1.07l-5.29,29.87A3.06,3.06,0,0,1,623.06,436.87Z" transform="translate(-401.39 -253.02)"/><path class="cls-1" d="M601.87,413.52a3.06,3.06,0,0,1-1.26-5.84l21.6-9.78a3.06,3.06,0,0,1,2.52,5.57l-21.6,9.78A3.11,3.11,0,0,1,601.87,413.52Z" transform="translate(-401.39 -253.02)"/><path class="cls-1" d="M623.06,399.93a3.19,3.19,0,0,1-.86-.12l-34.28-10.07a3.05,3.05,0,0,1,1.72-5.86l34.28,10.06a3.06,3.06,0,0,1-.86,6Z" transform="translate(-401.39 -253.02)"/><path class="cls-1" d="M588.43,389.07a3,3,0,0,1-1.5-5.71L613,368.69a3.05,3.05,0,1,1,3,5.32l-26.07,14.67A3,3,0,0,1,588.43,389.07Z" transform="translate(-401.39 -253.02)"/><path class="cls-1" d="M612.67,368.32a3,3,0,0,1-.83-.12,192.62,192.62,0,0,1-29.17-10.37,3.05,3.05,0,1,1,2.58-5.53,189.09,189.09,0,0,0,28.25,10,3.06,3.06,0,0,1-.83,6Z" transform="translate(-401.39 -253.02)"/><path class="cls-1" d="M660.65,378.65a2.77,2.77,0,0,1-.49,0c-11.93-1.9-23.43-4.19-35.16-7a3.05,3.05,0,1,1,1.42-5.94c11.58,2.77,22.93,5,34.71,6.91a3.05,3.05,0,0,1-.48,6.07Z" transform="translate(-401.39 -253.02)"/><path class="cls-1" d="M757.62,385.75a3.06,3.06,0,0,1-.07-6.11c6.16-.15,12.06-.43,17.54-.86a3.05,3.05,0,0,1,.47,6.09c-5.59.44-11.6.73-17.87.88Z" transform="translate(-401.39 -253.02)"/><path class="cls-1" d="M448.35,435.73a88.2,88.2,0,0,1-34.48-33.07q-12.48-21.09-12.48-47.6T414,307.46a89.06,89.06,0,0,1,34.61-33.06q22-12,49.27-12a103,103,0,0,1,40.4,7.72,82.43,82.43,0,0,1,30.87,22.39l-21.61,20.32Q528,291.77,499.42,291.77q-18.53,0-33.19,8.1a58.34,58.34,0,0,0-22.9,22.52q-8.24,14.4-8.23,32.67t8.23,32.68a58.32,58.32,0,0,0,22.9,22.51q14.67,8.12,33.19,8.11,28.56,0,48.12-21.36l21.61,20.59a82,82,0,0,1-31,22.38,103.7,103.7,0,0,1-40.53,7.72Q470.35,447.69,448.35,435.73Z" transform="translate(-401.39 -253.02)"/><path class="cls-1" d="M973.86,265,895.38,445.12H862.45L783.71,265H820l60,138.94L940.41,265Z" transform="translate(-401.39 -253.02)"/><path class="cls-1" d="M992.9,265h33.45V445.12H992.9Z" transform="translate(-401.39 -253.02)"/><path class="cls-1" d="M1075,265h78.74q28.82,0,51.2,11.19a82.76,82.76,0,0,1,34.74,31.65Q1252,328.3,1252,355.06t-12.35,47.22a82.76,82.76,0,0,1-34.74,31.65q-22.38,11.19-51.2,11.19H1075Zm77.2,151.81q19.8,0,34.86-7.59a54.32,54.32,0,0,0,23.16-21.62q8.1-14,8.1-32.55t-8.1-32.55A54.36,54.36,0,0,0,1187,300.9q-15-7.59-34.86-7.59h-43.75V416.82Z" transform="translate(-401.39 -253.02)"/><path class="cls-1" d="M1337.78,363v21.8h-54V363h54m6-6h-66v33.8h66V357Z" transform="translate(-401.39 -253.02)"/><path class="cls-1" d="M1424.93,264V436h-31.42V294.62l-9.66,7.47-29.45,22.75L1339,303.71,1393.1,264h31.83m6-6h-39.8l-60.56,44.46,22.62,30.94,34.32-26.52V442h43.42V258Z" transform="translate(-401.39 -253.02)"/><path class="cls-1" d="M1523.54,259a81,81,0,0,1,26.34,4.22,61.85,61.85,0,0,1,20.95,12,57,57,0,0,1,14,18.84A58,58,0,0,1,1590,318.8a69.51,69.51,0,0,1-5.23,27.41,166.29,166.29,0,0,1-14.28,26.19L1527.8,436H1490l38.93-53.93.06-.09.07-.1.52-.78,10.14-15.23-17.19,6.27a26.42,26.42,0,0,1-5.2,1.26,37.79,37.79,0,0,1-5.72.46A56.85,56.85,0,0,1,1490.7,370a53,53,0,0,1-17.26-11,53.09,53.09,0,0,1-16.31-39.21,61,61,0,0,1,5.17-25.58,55.7,55.7,0,0,1,14-19,63.26,63.26,0,0,1,21.11-12,80.19,80.19,0,0,1,26.08-4.22m-.26,94.38c10.31,0,18.85-3.3,25.39-9.81s9.86-15,9.86-25.31a36.18,36.18,0,0,0-9.21-24.65c-6.3-7.12-14.89-10.73-25.52-10.73s-19.12,3.37-25.58,10-9.67,15.22-9.67,25.64c0,9.88,3.2,18.23,9.5,24.82s14.87,10,25.23,10m.26-100.38a85.7,85.7,0,0,0-28,4.55,68.93,68.93,0,0,0-23.1,13.13,61.43,61.43,0,0,0-15.57,21.06,66.69,66.69,0,0,0-5.71,28.08,59,59,0,0,0,18.17,43.55,58.52,58.52,0,0,0,19.2,12.22,62.54,62.54,0,0,0,23.11,4.29,44.72,44.72,0,0,0,6.61-.52,32.89,32.89,0,0,0,6.36-1.56l-.52.78L1478.27,442H1531l44.43-66.3a172.6,172.6,0,0,0,14.81-27.17A75.11,75.11,0,0,0,1596,318.8a63.68,63.68,0,0,0-5.71-27.3,62.8,62.8,0,0,0-15.44-20.8,67.46,67.46,0,0,0-23-13.13,86.49,86.49,0,0,0-28.29-4.55Zm-.26,94.38q-13.07,0-20.9-8.19t-7.83-20.67q0-13.26,8-21.45t21.28-8.19q13.32,0,21,8.71a30.2,30.2,0,0,1,7.7,20.67q0,13-8.09,21.06t-21.16,8.06Z" transform="translate(-401.39 -253.02)"/></svg>