<?xml version="1.0" encoding="UTF-8"?>
<svg width="64px" height="64px" viewBox="0 0 64 64" version="1.1" xmlns="http://www.w3.org/2000/svg" xmlns:xlink="http://www.w3.org/1999/xlink">
    <!-- Generator: Sketch 52.6 (67491) - http://www.bohemiancoding.com/sketch -->
    <title>Group 2</title>
    <desc>Created with Sketch.</desc>
    <defs>
        <polygon id="path-1" points="0 33 36 33 36 0 0 0"></polygon>
    </defs>
    <g id="Page-1" stroke="none" stroke-width="1" fill="none" fill-rule="evenodd">
        <g id="Desktop-HD" transform="translate(-1376.000000, -520.000000)">
            <g id="Group-8" transform="translate(1376.000000, 316.000000)">
                <g id="Group-2" transform="translate(0.000000, 204.000000)">
                    <g id="Group-Copy-3" fill="#FFFFFF" fill-rule="nonzero">
                        <rect id="Rectangle" x="0" y="0" width="64" height="64"></rect>
                    </g>
                    <g id="Group-6" transform="translate(12.000000, 15.000000)">
                        <path d="M22.2973833,9.23220918 C27.538962,9.23220918 31.8025155,13.613579 31.8025155,19 C31.8025155,24.3847868 27.538962,28.7677908 22.2973833,28.7677908 C18.4870609,28.7677908 15.0552263,26.4357451 13.5539974,22.8290001 L13.5269626,22.763631 L13.5444557,22.6949933 C13.5603585,22.636161 13.56831,22.5854999 13.56831,22.5413757 C13.56831,22.3387312 13.4697123,22.1475264 13.305913,22.0331303 L13.2486627,21.9922746 L13.227989,21.9252711 C12.9385572,20.9790521 12.792251,19.9952459 12.792251,19 C12.792251,13.613579 17.0558045,9.23220918 22.2973833,9.23220918 Z M12.4376175,23.2816818 C14.1217291,27.3623533 17.9924823,30 22.2973833,30 C28.1989302,30 33,25.0646264 33,19 C33,12.9337394 28.1989302,8 22.2973833,8 C18.6349574,8 15.2635536,9.90060912 13.2788781,13.0857228 L13.2073153,13.2017531 L13.0753217,13.1772396 C13.0403354,13.1707027 13.0037589,13.1658 12.9687726,13.1658 L8.56368368,13.1658 C8.23449472,13.1658 7.96414631,13.4419848 7.96414631,13.7819046 C7.96414631,14.1201902 8.23449472,14.3980092 8.56368368,14.3980092 L12.5727917,14.3980092 L12.4535203,14.6823652 C12.0766228,15.58446 11.8221772,16.5388501 11.6933642,17.5226564 L11.6679196,17.7007874 L0.597947087,17.7007874 C0.267167847,17.7007874 0,17.9769722 0,18.316892 C0,18.6568118 0.267167847,18.9346308 0.597947087,18.9346308 L11.5947665,18.9346308 L11.5963568,19.1372753 C11.6058985,19.9936116 11.7140379,20.8466795 11.9144138,21.6686971 L11.9764349,21.9252711 L3.71808588,21.9252711 C3.38730664,21.9252711 3.1185485,22.201456 3.1185485,22.5413757 C3.1185485,22.8796613 3.38730664,23.1574803 3.71808588,23.1574803 L12.3867284,23.1574803 L12.4376175,23.2816818 Z" id="Fill-1" fill="#58585B"></path>
                        <mask id="mask-2" fill="white">
                            <use xlink:href="#path-1"></use>
                        </mask>
                        <g id="Clip-4"></g>
                        <path d="M20.5550284,2.771852 L25.3901617,2.771852 L25.3901617,1.21298689 L20.5550284,1.21298689 L20.5550284,2.771852 Z M33.3854173,9.79237557 L33.2490792,9.64276313 L34.2034459,8.78530688 L35.1334665,9.74733096 C35.2389662,9.856725 35.3947812,9.92268318 35.5603346,9.92590065 C35.5652038,9.92750938 35.570073,9.92750938 35.5749423,9.92750938 C35.7356264,9.92750938 35.8881953,9.86798616 35.9969411,9.76502706 C36.1154254,9.65241554 36.1819714,9.50119436 36.1852176,9.34032077 C36.1884637,9.17783844 36.12841,9.0233998 36.016418,8.90757081 L33.3351021,6.13571881 C33.1030027,5.89440842 32.7134653,5.88636474 32.4700044,6.11802272 C32.2281666,6.34807195 32.2200512,6.73416858 32.4521506,6.97387023 L33.356202,7.91015454 L32.3742431,8.79013309 L32.237905,8.67108663 C29.8893189,6.61994833 26.8866346,5.39409155 23.7768275,5.21873934 L23.5836819,5.20747818 L23.5836819,3.98644762 L26.0020601,3.98644762 C26.3396592,3.98644762 26.6139584,3.71296251 26.6139584,3.37995418 L26.6139584,0.606493443 C26.6139584,0.271876371 26.3396592,0 26.0020601,0 L19.94313,0 C19.6055309,0 19.3312317,0.271876371 19.3312317,0.606493443 L19.3312317,3.37995418 C19.3312317,3.71296251 19.6055309,3.98644762 19.94313,3.98644762 L22.3615082,3.98644762 L22.3615082,5.20747818 L22.1683626,5.21873934 C18.1496348,5.44396237 14.4327986,7.37444547 11.939759,10.5243504 L13.5401086,10.5243504 C15.9649791,7.90693706 19.3994007,6.40598645 22.9734066,6.40598645 C30.0321493,6.40598645 35.7745802,12.0993029 35.7745802,19.0973041 C35.7745802,26.0936967 30.0321493,31.7870131 22.9734066,31.7870131 C18.7842562,31.7870131 14.8580436,29.747136 12.4558961,26.3253547 L11,26.3253547 C13.5433548,30.4469361 18.1139272,33 22.9734066,33 C30.7073475,33 37,26.7629308 37,19.0973041 C37,15.656218 35.7161496,12.3518744 33.3854173,9.79237557 Z" id="Fill-3" fill="#58585B" mask="url(#mask-2)"></path>
                        <path d="M22.4137573,18.0455737 C23.0958384,18.0455737 23.6533385,18.6475908 23.6533385,19.3878864 C23.6533385,20.1264957 23.0958384,20.7285128 22.4137573,20.7285128 C21.7316762,20.7285128 21.1741761,20.1264957 21.1741761,19.3878864 C21.1741761,18.6475908 21.7316762,18.0455737 22.4137573,18.0455737 M22.4137573,22 C23.7436598,22 24.8275147,20.8280058 24.8275147,19.3878864 C24.8275147,19.2023909 24.8072703,19.0135228 24.7698959,18.826341 L24.7387507,18.6762583 L24.8617745,18.5986874 L28.7082136,16.1838736 C28.8436954,16.0995575 28.9386885,15.961279 28.9807346,15.7977057 C29.0196661,15.6341324 28.9994217,15.4621275 28.9215586,15.3154175 C28.7596032,15.0135657 28.3998755,14.9107001 28.118011,15.0843913 L24.1516626,17.5750897 L24.0457687,17.4688513 C23.5972771,17.0219759 23.0179753,16.7740865 22.4137573,16.7740865 C21.0838549,16.7740865 20,17.9460806 20,19.3878864 C20,20.8280058 21.0838549,22 22.4137573,22" id="Fill-5" fill="#28A9B3" mask="url(#mask-2)"></path>
                    </g>
                </g>
            </g>
        </g>
    </g>
</svg>