<?xml version="1.0" encoding="UTF-8"?>
<svg width="64px" height="64px" viewBox="0 0 64 64" version="1.1" xmlns="http://www.w3.org/2000/svg" xmlns:xlink="http://www.w3.org/1999/xlink">
    <!-- Generator: Sketch 52.6 (67491) - http://www.bohemiancoding.com/sketch -->
    <title>Group 5</title>
    <desc>Created with Sketch.</desc>
    <defs>
        <polygon id="path-1" points="0 0.2355 36.9618065 0.2355 36.9618065 1.5 0 1.5"></polygon>
        <polygon id="path-3" points="0.874059355 0.00864285714 36.917311 0.00864285714 36.917311 25.4879643 0.874059355 25.4879643"></polygon>
    </defs>
    <g id="Page-1" stroke="none" stroke-width="1" fill="none" fill-rule="evenodd">
        <g id="Desktop-HD" transform="translate(-1376.000000, -384.000000)">
            <g id="Group-8" transform="translate(1376.000000, 316.000000)">
                <g id="Group-5" transform="translate(0.000000, 68.000000)">
                    <g id="Group-Copy" fill="#FFFFFF" fill-rule="nonzero">
                        <rect id="Rectangle" x="0" y="0" width="64" height="64"></rect>
                    </g>
                    <g id="Group-7" transform="translate(12.000000, 17.000000)">
                        <g id="Group-3" transform="translate(0.000000, 28.000000)">
                            <mask id="mask-2" fill="white">
                                <use xlink:href="#path-1"></use>
                            </mask>
                            <g id="Clip-2"></g>
                            <path d="M36.3064052,0.47025 L0.654637419,0.47025 C0.293708387,0.47025 -0.000381935484,0.70125 -0.000381935484,0.98475 C-0.000381935484,1.26975 0.293708387,1.50075 0.654637419,1.50075 L36.3064052,1.50075 C36.6673342,1.50075 36.9633342,1.26975 36.9633342,0.98475 C36.9633342,0.70125 36.6673342,0.47025 36.3064052,0.47025" id="Fill-1" fill="#28A9B3" mask="url(#mask-2)"></path>
                        </g>
                        <g id="Group-6">
                            <mask id="mask-4" fill="white">
                                <use xlink:href="#path-3"></use>
                            </mask>
                            <g id="Clip-5"></g>
                            <path d="M4.0842271,11.4576071 C5.13264,11.4576071 5.98626581,12.3196786 5.98626581,13.3784643 C5.98626581,14.4353214 5.13264,15.2973929 4.0842271,15.2973929 C3.03772387,15.2973929 2.18409806,14.4353214 2.18409806,13.3784643 C2.18409806,12.3196786 3.03772387,11.4576071 4.0842271,11.4576071 M11.0316335,20.3271071 C12.0800465,20.3271071 12.9336723,21.18725 12.9336723,22.2460357 C12.9336723,23.3048214 12.0800465,24.1649643 11.0316335,24.1649643 C9.98322065,24.1649643 9.13150452,23.3048214 9.13150452,22.2460357 C9.13150452,21.18725 9.98322065,20.3271071 11.0316335,20.3271071 M19.0923819,3.91303571 C20.1407948,3.91303571 20.992511,4.77317857 20.992511,5.83196429 C20.992511,6.89075 20.1407948,7.75282143 19.0923819,7.75282143 C18.0458787,7.75282143 17.1922529,6.89075 17.1922529,5.83196429 C17.1922529,4.77317857 18.0458787,3.91303571 19.0923819,3.91303571 M26.3663432,14.0380357 C27.4147561,14.0380357 28.2683819,14.9001071 28.2683819,15.9588929 C28.2683819,17.01575 27.4147561,17.8778214 26.3663432,17.8778214 C25.31984,17.8778214 24.4662142,17.01575 24.4662142,15.9588929 C24.4662142,14.9001071 25.31984,14.0380357 26.3663432,14.0380357 M33.7071432,1.33260714 C34.7555561,1.33260714 35.6072723,2.19275 35.6072723,3.25153571 C35.6072723,4.30839286 34.7555561,5.17046429 33.7071432,5.17046429 C32.6587303,5.17046429 31.8070142,4.30839286 31.8070142,3.25153571 C31.8070142,2.19275 32.6587303,1.33260714 33.7071432,1.33260714 M4.0842271,16.6203929 C4.6418529,16.6203929 5.16510452,16.47575 5.6234271,16.2231071 L8.62544,20.1053214 C8.12510452,20.6781071 7.81955613,21.4244643 7.81955613,22.2460357 C7.81955613,24.0338214 9.26136258,25.4879643 11.0316335,25.4879643 C12.8019045,25.4879643 14.2418013,24.0338214 14.2418013,22.2460357 C14.2418013,21.24125 13.7892077,20.3425357 13.0768981,19.7466071 L18.2024723,8.94467857 C18.4851045,9.02760714 18.7830142,9.07582143 19.0923819,9.07582143 C19.57744,9.07582143 20.0357626,8.96396429 20.4463432,8.76725 L23.9601497,13.8201071 C23.4598142,14.3909643 23.1561755,15.13925 23.1561755,15.9588929 C23.1561755,17.7466786 24.5960723,19.2008214 26.3663432,19.2008214 C28.1385239,19.2008214 29.5784206,17.7466786 29.5784206,15.9588929 C29.5784206,15.0331786 29.1888465,14.1961786 28.570111,13.6060357 L32.6911948,6.32567857 C33.0120206,6.43367857 33.3519432,6.49346429 33.7071432,6.49346429 C35.4774142,6.49346429 36.917311,5.03932143 36.917311,3.25153571 C36.917311,1.46182143 35.4774142,0.00767857143 33.7071432,0.00767857143 C31.9368723,0.00767857143 30.4950658,1.46182143 30.4950658,3.25153571 C30.4950658,4.20617857 30.9094658,5.06246429 31.5625755,5.65646429 L27.4548594,12.9098214 C27.1149368,12.7863929 26.7482787,12.7150357 26.3663432,12.7150357 C25.8812852,12.7150357 25.4229626,12.8268929 25.0085626,13.0236071 L21.4966658,7.97460714 C21.9970013,7.40182143 22.3044594,6.65353571 22.3044594,5.83196429 C22.3044594,4.04417857 20.8626529,2.59003571 19.0923819,2.59003571 C17.322111,2.59003571 15.8822142,4.04417857 15.8822142,5.83196429 C15.8822142,6.83482143 16.3328981,7.72967857 17.0413884,8.32560714 L11.9158142,19.1313929 C11.6350916,19.0503929 11.3390916,19.0041071 11.0316335,19.0041071 C10.5465755,19.0041071 10.0882529,19.1159643 9.6738529,19.31075 L6.62027871,15.3610357 C7.04231742,14.8113929 7.29630452,14.1248214 7.29630452,13.3784643 C7.29630452,11.58875 5.85640774,10.1346071 4.0842271,10.1346071 C2.31395613,10.1346071 0.874059355,11.58875 0.874059355,13.3784643 C0.874059355,15.16625 2.31395613,16.6203929 4.0842271,16.6203929" id="Fill-4" fill="#58585B" mask="url(#mask-4)"></path>
                        </g>
                    </g>
                </g>
            </g>
        </g>
    </g>
</svg>