<?xml version="1.0" encoding="UTF-8"?>
<svg width="64px" height="64px" viewBox="0 0 64 64" version="1.1" xmlns="http://www.w3.org/2000/svg" xmlns:xlink="http://www.w3.org/1999/xlink">
    <!-- Generator: Sketch 52.6 (67491) - http://www.bohemiancoding.com/sketch -->
    <title>Group</title>
    <desc>Created with Sketch.</desc>
    <defs>
        <polygon id="path-1" points="9.02777778e-05 0.641895833 9.35738194 0.641895833 9.35738194 10 9.02777778e-05 10"></polygon>
    </defs>
    <g id="Page-1" stroke="none" stroke-width="1" fill="none" fill-rule="evenodd">
        <g id="Desktop-HD" transform="translate(-1376.000000, -316.000000)">
            <g id="Group-8" transform="translate(1376.000000, 316.000000)">
                <g id="Group">
                    <rect id="Rectangle" fill="#FFFFFF" fill-rule="nonzero" x="0" y="0" width="64" height="64"></rect>
                    <g id="Group-26" transform="translate(13.000000, 16.000000)">
                        <path d="M34.4250027,25 L16.706122,25 C16.3973411,25 16.1486008,24.7556894 16.1486008,24.456158 C16.1486008,24.1549531 16.3973411,23.9123159 16.706122,23.9123159 L34.4250027,23.9123159 C35.780208,23.9123159 36.8849576,22.8363454 36.8849576,21.5127175 L36.8849576,3.48728246 C36.8849576,2.16532798 35.780208,1.08768407 34.4250027,1.08768407 L9.57499732,1.08768407 C8.21807655,1.08768407 7.11504235,2.16532798 7.11504235,3.48728246 L7.11504235,16.7921687 C7.11504235,17.0917001 6.86458668,17.3360107 6.55752118,17.3360107 C6.24874022,17.3360107 6,17.0917001 6,16.7921687 L6,3.48728246 C6,1.5645917 7.60223008,0 9.57499732,0 L34.4250027,0 C36.3960545,0 38,1.5645917 38,3.48728246 L38,21.5127175 C38,23.4354083 36.3960545,25 34.4250027,25" id="Fill-1" fill="#58585B"></path>
                        <path d="M37.4422097,6.65 L6.55779029,6.65 C6.24886028,6.65 6,6.358 6,6 C6,5.64 6.24886028,5.35 6.55779029,5.35 L37.4422097,5.35 C37.7511397,5.35 38,5.64 38,6 C38,6.358 37.7511397,6.65 37.4422097,6.65" id="Fill-3" fill="#58585B"></path>
                        <path d="M12.9991439,14.1128776 C9.75296564,14.1128776 7.11287758,16.7529656 7.11287758,19.9991439 C7.11287758,23.2453222 9.75296564,25.8854103 12.9991439,25.8854103 C16.2453222,25.8854103 18.8854103,23.2453222 18.8854103,19.9991439 C18.8854103,16.7529656 16.2453222,14.1128776 12.9991439,14.1128776 M12.9991439,27 C9.1400269,27 6,23.858261 6,19.9991439 C6,16.1400269 9.1400269,13 12.9991439,13 C16.8599731,13 20,16.1400269 20,19.9991439 C20,23.858261 16.8599731,27 12.9991439,27" id="Fill-5" fill="#28A9B3"></path>
                        <g id="Group-9" transform="translate(0.000000, 23.000000)">
                            <mask id="mask-2" fill="white">
                                <use xlink:href="#path-1"></use>
                            </mask>
                            <g id="Clip-8"></g>
                            <path d="M5.601375,2.05970833 L1.65623611,6.00304167 C1.01345833,6.64943056 1.01345833,7.69845833 1.65623611,8.34304167 C2.30443056,8.98581944 3.35345833,8.98581944 3.99623611,8.34123611 L7.941375,4.39790278 L5.601375,2.05970833 Z M2.82804167,10.0005417 C2.10401389,10.0005417 1.37818056,9.72429167 0.827486111,9.17359722 C-0.275708333,8.07040278 -0.275708333,6.27568056 0.827486111,5.17248611 L5.18790278,0.813875 C5.41359722,0.584569444 5.78915278,0.584569444 6.01665278,0.813875 L9.18540278,3.98443056 C9.41470833,4.21193056 9.41470833,4.58568056 9.18540278,4.81318056 L4.82679167,9.17179167 C4.27790278,9.72429167 3.55206944,10.0005417 2.82804167,10.0005417 Z" id="Fill-7" fill="#28A9B3" mask="url(#mask-2)"></path>
                        </g>
                        <path d="M7.455448,26 C7.33351402,26 7.2101785,25.9487742 7.12188148,25.8477862 C6.95089361,25.6545919 6.96070439,25.3530916 7.14570766,25.1745331 L8.23470423,24.1266 C8.4197075,23.9480416 8.70842474,23.9597503 8.87941262,24.1529447 C9.05040049,24.3461391 9.03778664,24.6476394 8.85278336,24.8261978 L7.76518833,25.8741309 C7.67689132,25.9590194 7.56616966,26 7.455448,26" id="Fill-10" fill="#28A9B3"></path>
                        <path d="M32.461353,20.65 L22.538647,20.65 C22.2403194,20.65 22,20.358 22,20 C22,19.64 22.2403194,19.35 22.538647,19.35 L32.461353,19.35 C32.7596806,19.35 33,19.64 33,20 C33,20.358 32.7596806,20.65 32.461353,20.65" id="Fill-12" fill="#58585B"></path>
                        <path d="M32.461353,17.65 L22.538647,17.65 C22.2403194,17.65 22,17.358 22,17 C22,16.64 22.2403194,16.35 22.538647,16.35 L32.461353,16.35 C32.7596806,16.35 33,16.64 33,17 C33,17.358 32.7596806,17.65 32.461353,17.65" id="Fill-14" fill="#58585B"></path>
                        <path d="M32.4493679,14.65 L20.5523263,14.65 C20.2473609,14.65 20,14.358 20,14 C20,13.64 20.2473609,13.35 20.5523263,13.35 L32.4493679,13.35 C32.7543334,13.35 33,13.64 33,14 C33,14.358 32.7543334,14.65 32.4493679,14.65" id="Fill-16" fill="#58585B"></path>
                        <path d="M32.4630902,10.65 L14.5369098,10.65 C14.2411964,10.65 14,10.358 14,10 C14,9.64 14.2411964,9.35 14.5369098,9.35 L32.4630902,9.35 C32.7604556,9.35 33,9.64 33,10 C33,10.358 32.7604556,10.65 32.4630902,10.65" id="Fill-18" fill="#58585B"></path>
                        <path d="M12,3.00092851 C12,3.55246054 11.5539033,4 11,4 C10.4479554,4 10,3.55246054 10,3.00092851 C10,2.44939647 10.4479554,2 11,2 C11.5539033,2 12,2.44939647 12,3.00092851" id="Fill-20" fill="#58585B"></path>
                        <path d="M16,3.00092851 C16,3.55246054 15.5539033,4 15,4 C14.4479554,4 14,3.55246054 14,3.00092851 C14,2.44939647 14.4479554,2 15,2 C15.5539033,2 16,2.44939647 16,3.00092851" id="Fill-22" fill="#58585B"></path>
                        <path d="M19,3.00092851 C19,3.55246054 18.5524605,4 17.9990715,4 C17.4475395,4 17,3.55246054 17,3.00092851 C17,2.44939647 17.4475395,2 17.9990715,2 C18.5524605,2 19,2.44939647 19,3.00092851" id="Fill-24" fill="#58585B"></path>
                    </g>
                </g>
            </g>
        </g>
    </g>
</svg>