<?xml version="1.0" encoding="UTF-8"?>
<svg width="64px" height="64px" viewBox="0 0 64 64" version="1.1" xmlns="http://www.w3.org/2000/svg" xmlns:xlink="http://www.w3.org/1999/xlink">
    <!-- Generator: Sketch 52.6 (67491) - http://www.bohemiancoding.com/sketch -->
    <title>Group 4</title>
    <desc>Created with Sketch.</desc>
    <defs>
        <polygon id="path-1" points="0.1408 0.1204 10.0961667 0.1204 10.0961667 27.8784 0.1408 27.8784"></polygon>
    </defs>
    <g id="Page-1" stroke="none" stroke-width="1" fill="none" fill-rule="evenodd">
        <g id="Desktop-HD" transform="translate(-1376.000000, -452.000000)">
            <g id="Group-8" transform="translate(1376.000000, 316.000000)">
                <g id="Group-4" transform="translate(0.000000, 136.000000)">
                    <g id="Group-Copy-2" fill="#FFFFFF" fill-rule="nonzero">
                        <rect id="Rectangle" x="0" y="0" width="64" height="64"></rect>
                    </g>
                    <g id="Group-14" transform="translate(13.000000, 12.000000)">
                        <path d="M16.9989215,1.45121294 C18.4030736,1.45121294 19.5483958,2.59407008 19.5483958,4 C19.5483958,5.40377358 18.4030736,6.54663073 16.9989215,6.54663073 C15.5947695,6.54663073 14.4494473,5.40377358 14.4494473,4 C14.4494473,2.59407008 15.5947695,1.45121294 16.9989215,1.45121294 M16.9989215,8 C19.2054462,8 21,6.20377358 21,4 C21,1.79407008 19.2054462,0 16.9989215,0 C14.7945538,0 13,1.79407008 13,4 C13,6.20377358 14.7945538,8 16.9989215,8" id="Fill-1" fill="#28A9B3"></path>
                        <path d="M26.5010377,3.39709371 C27.6611325,3.39709371 28.6033205,4.34163701 28.6033205,5.5 C28.6033205,6.65836299 27.6611325,7.60290629 26.5010377,7.60290629 C25.3409428,7.60290629 24.3987548,6.65836299 24.3987548,5.5 C24.3987548,4.34163701 25.3409428,3.39709371 26.5010377,3.39709371 M26.5010377,9 C28.4310703,9 30,7.42852906 30,5.5 C30,3.56939502 28.4310703,2 26.5010377,2 C24.571005,2 23,3.56939502 23,5.5 C23,7.42852906 24.571005,9 26.5010377,9" id="Fill-3" fill="#58585B"></path>
                        <path d="M6.39916963,5.49896235 C6.39916963,4.34094278 7.34163701,3.39667951 8.50207592,3.39667951 C9.65836299,3.39667951 10.6029063,4.34094278 10.6029063,5.49896235 C10.6029063,6.65905722 9.65836299,7.60124518 8.50207592,7.60124518 C7.34163701,7.60124518 6.39916963,6.65905722 6.39916963,5.49896235 M8.50207592,9 C10.430605,9 12,7.42899496 12,5.49896235 C12,3.56892974 10.430605,2 8.50207592,2 C6.56939502,2 5,3.56892974 5,5.49896235 C5,7.42899496 6.56939502,9 8.50207592,9" id="Fill-5" fill="#58585B"></path>
                        <path d="M21.8827038,14.3769657 L21.8827038,20.3964763 L14.1192843,20.3964763 L14.1192843,14.3769657 L12.7793241,14.3769657 L12.7793241,25.2768026 C11.9005964,24.8869821 11.3399602,24.0581403 11.3399602,23.1308972 L11.3399602,13.6465253 C11.3399602,12.337031 12.4572565,11.27354 13.8310139,11.27354 L22.1689861,11.27354 C23.5427435,11.27354 24.6600398,12.337031 24.6600398,13.6465253 L24.6600398,23.1308972 C24.6600398,24.0600326 24.0994036,24.8907667 23.2206759,25.2805873 L23.2206759,14.3769657 L21.8827038,14.3769657 Z M17.3300199,25.0024144 L17.3300199,37.2685155 C17.3300199,37.5201958 17.1153082,37.7245677 16.8508946,37.7245677 L14.5984095,37.7245677 C14.333996,37.7245677 14.1192843,37.5201958 14.1192843,37.2685155 L14.1192843,21.6700163 L21.8827038,21.6700163 L21.8827038,37.2685155 C21.8827038,37.5201958 21.667992,37.7245677 21.4015905,37.7245677 L19.1491054,37.7245677 C18.8846918,37.7245677 18.6699801,37.5201958 18.6699801,37.2685155 L18.6699801,25.0024144 L17.3300199,25.0024144 Z M26,23.1308972 L26,13.6465253 C26,11.6349755 24.2803181,10 22.1689861,10 L13.8310139,10 C11.7196819,10 10,11.6349755 10,13.6465253 L10,23.1308972 C10,24.7583034 11.139165,26.188907 12.7793241,26.6354976 L12.7793241,37.2685155 C12.7793241,38.2241436 13.5944334,39 14.5984095,39 L16.8508946,39 C17.2703777,39 17.6759443,38.8599674 18,38.6063948 C18.3260437,38.8599674 18.7296223,39 19.1491054,39 L21.4015905,39 C22.4055666,39 23.2206759,38.2241436 23.2206759,37.2685155 L23.2206759,26.6336052 C24.860835,26.188907 26,24.7564111 26,23.1308972 Z" id="Fill-7" fill="#28A9B3"></path>
                        <path d="M8.02946593,35.2199726 L8.02946593,24.0164997 L6.79005525,24.0164997 L6.79005525,35.2199726 C6.79005525,35.4787088 6.59116022,35.6907558 6.34622468,35.6907558 L4.25966851,35.6907558 C4.01289134,35.6907558 3.81399632,35.4787088 3.81399632,35.2199726 L3.81399632,14.4996758 L2.57458564,14.4996758 L2.57458564,24.2985806 C1.76058932,23.8978313 1.23941068,23.0457526 1.23941068,22.0925139 L1.23941068,13.7487571 C1.23941068,12.4025506 2.27624309,11.3092442 3.54880295,11.3092442 L7.86924494,11.3092442 L7.86924494,10 L3.54880295,10 C1.59300184,10 0,11.6808127 0,13.7487571 L0,22.0925139 C0,23.7655451 1.05524862,25.2362562 2.57458564,25.6953671 L2.57458564,35.2199726 C2.57458564,36.2023921 3.32965009,37 4.25966851,37 L6.34622468,37 C6.73296501,37 7.10865562,36.8579869 7.4106814,36.5953599 C7.71086556,36.8579869 8.08655617,37 8.47513812,37 L10,37 L10,35.6907558 L8.47513812,35.6907558 C8.23020258,35.6907558 8.02946593,35.4787088 8.02946593,35.2199726" id="Fill-9" fill="#58585B"></path>
                        <g id="Group-13" transform="translate(24.000000, 10.000000)">
                            <mask id="mask-2" fill="white">
                                <use xlink:href="#path-1"></use>
                            </mask>
                            <g id="Clip-12"></g>
                            <path d="M6.56296667,0.1204 L2.26196667,0.1204 L2.26196667,1.4664 L6.56296667,1.4664 C7.8298,1.4664 8.86196667,2.5924 8.86196667,3.9744 L8.86196667,12.5544 C8.86196667,13.5344 8.34496667,14.4084 7.53463333,14.8204 L7.53463333,4.7464 L6.29896667,4.7464 L6.29896667,26.0484 C6.29896667,26.3164 6.10096667,26.5324 5.85713333,26.5324 L3.77996667,26.5324 C3.53613333,26.5324 3.3363,26.3164 3.3363,26.0484 L3.3363,14.5324 L2.10246667,14.5324 L2.10246667,26.0484 C2.10246667,26.3164 1.90446667,26.5324 1.6588,26.5324 L0.1408,26.5324 L0.1408,27.8784 L1.6588,27.8784 C2.04563333,27.8784 2.41963333,27.7324 2.7203,27.4624 C3.01913333,27.7324 3.39313333,27.8784 3.77996667,27.8784 L5.85713333,27.8784 C6.78113333,27.8784 7.53463333,27.0584 7.53463333,26.0484 L7.53463333,16.2564 C9.0453,15.7844 10.0976333,14.2724 10.0976333,12.5544 L10.0976333,3.9744 C10.0976333,1.8504 8.5118,0.1204 6.56296667,0.1204" id="Fill-11" fill="#58585B" mask="url(#mask-2)"></path>
                        </g>
                    </g>
                </g>
            </g>
        </g>
    </g>
</svg>